<svg width="13" height="13" viewBox="0 0 13 13" fill="none" xmlns="http://www.w3.org/2000/svg">
<g clip-path="url(#clip0_82_152)">
<path d="M12.1598 10.3884C11.7566 9.99091 11.2328 9.47376 10.6853 8.93537C10.6517 9.05984 10.5934 9.16597 10.5084 9.24991C9.87293 9.87031 7.97839 9.05791 6.03049 7.40706C5.78738 7.20155 4.37611 9.36376 4.63702 9.61366C4.96018 9.92241 7.20655 11.3369 7.97543 11.6138C10.2149 12.4194 11.3652 11.635 11.7546 11.2674C11.974 11.058 12.1074 10.758 12.1598 10.3884Z" fill="url(#paint0_linear_82_152)"/>
<path d="M2.4755 2.6727C2.32331 2.20861 2.19088 1.60172 2.43597 1.37016C3.17817 0.66582 5.56783 1.841 7.7974 4.01672C10.026 6.19245 11.2406 8.53605 10.5083 9.251C10.5013 9.25775 10.4924 9.26354 10.4855 9.2703C11.0913 9.83184 11.6912 10.3895 12.0767 10.7475C12.5579 9.3552 11.4392 6.49155 8.96357 3.99743C8.56134 3.59219 7.37046 2.39964 6.33968 1.72425C5.39686 1.10675 4.36707 0.539425 3.21869 0.405312C2.47056 0.317511 1.13144 0.505656 1.40816 1.5419C1.46251 1.74645 1.63645 2.23852 2.21361 2.82514C2.32825 2.94189 2.52591 2.82707 2.4755 2.6727Z" fill="url(#paint1_linear_82_152)"/>
<path d="M5.53234 4.06213L5.45822 5.99182C5.45229 6.13944 5.52937 6.27934 5.65982 6.35557L7.32607 7.33102C7.5089 7.45163 7.47036 7.72564 7.26084 7.79318L5.41473 8.24956C5.2655 8.28622 5.14888 8.40104 5.11232 8.54673L4.62905 10.4697C4.56777 10.6771 4.29007 10.7253 4.15863 10.5517L3.06954 8.96451C2.98554 8.84293 2.84125 8.77443 2.69103 8.78601L0.740161 8.93556C0.519774 8.94231 0.386356 8.69917 0.514832 8.52357L1.76007 6.96149C1.85494 6.84281 1.87471 6.68265 1.81146 6.54564L1.03269 4.85041C0.957582 4.64779 1.15326 4.44807 1.36377 4.51368L3.18122 5.18425C3.32353 5.23635 3.48264 5.20933 3.59827 5.11285L5.10243 3.85855C5.27637 3.72637 5.53036 3.84697 5.53234 4.06213Z" fill="#FDD835"/>
<path d="M4.64383 5.72462L5.10437 4.49444C5.13204 4.42691 5.17355 4.30823 5.28127 4.35937C5.36626 4.39989 5.32673 4.59382 5.32673 4.59382L5.22296 5.70725C5.18244 6.13082 5.06484 6.22634 4.89683 6.23695C4.70411 6.24757 4.5114 6.07679 4.64383 5.72462Z" fill="#FFFF8D"/>
<path d="M5.32579 8.07885L6.76177 7.77686C6.83391 7.75949 6.96041 7.73633 6.92385 7.62441C6.89519 7.53661 6.69259 7.54723 6.69259 7.54723L5.60844 7.46425C5.29121 7.42758 5.04315 7.47776 4.94234 7.64178C4.80794 7.86176 4.93048 8.13578 5.32579 8.07885Z" fill="#F4B400"/>
</g>
<defs>
<linearGradient id="paint0_linear_82_152" x1="9.26303" y1="10.2895" x2="5.28135" y2="7.79714" gradientUnits="userSpaceOnUse">
<stop offset="0.0969" stop-color="#FFB300"/>
<stop offset="1" stop-color="#FFB300" stop-opacity="0"/>
</linearGradient>
<linearGradient id="paint1_linear_82_152" x1="11.3929" y1="7.94676" x2="1.65894" y2="-0.149516" gradientUnits="userSpaceOnUse">
<stop stop-color="#FFB300"/>
<stop offset="0.7062" stop-color="#FDD835"/>
<stop offset="0.8408" stop-color="#FDDC36"/>
<stop offset="0.9842" stop-color="#FFE93A"/>
<stop offset="1" stop-color="#FFEB3B"/>
</linearGradient>
<clipPath id="clip0_82_152">
<rect width="12.65" height="12.35" fill="white"/>
</clipPath>
</defs>
</svg>
