<svg width="46" height="45" viewBox="0 0 46 45" fill="none" xmlns="http://www.w3.org/2000/svg">
<g clip-path="url(#clip0_83_278)">
<path d="M30.5833 21.4583H17.7349L21.6674 16.9167C21.8513 16.7039 21.9398 16.4297 21.9134 16.1542C21.8869 15.8788 21.7478 15.6247 21.5266 15.4479C21.3054 15.2711 21.0201 15.186 20.7337 15.2114C20.4472 15.2368 20.183 15.3706 19.9991 15.5833L14.5824 21.8333C14.546 21.883 14.5134 21.9353 14.4849 21.9896C14.4849 22.0417 14.4849 22.0729 14.4091 22.125C14.36 22.2444 14.3343 22.3716 14.3333 22.5C14.3343 22.6284 14.36 22.7556 14.4091 22.875C14.4091 22.9271 14.4091 22.9583 14.4849 23.0104C14.5134 23.0647 14.546 23.117 14.5824 23.1667L19.9991 29.4167C20.1009 29.5343 20.2285 29.6288 20.3727 29.6936C20.5168 29.7584 20.6741 29.7919 20.8333 29.7917C21.0864 29.7921 21.3317 29.7074 21.5266 29.5521C21.6363 29.4646 21.727 29.3572 21.7934 29.236C21.8599 29.1149 21.9008 28.9822 21.9139 28.8458C21.927 28.7094 21.912 28.5718 21.8697 28.441C21.8274 28.3101 21.7586 28.1886 21.6674 28.0833L17.7349 23.5417H30.5833C30.8706 23.5417 31.1461 23.4319 31.3493 23.2366C31.5524 23.0412 31.6666 22.7763 31.6666 22.5C31.6666 22.2237 31.5524 21.9588 31.3493 21.7634C31.1461 21.5681 30.8706 21.4583 30.5833 21.4583Z" fill="black"/>
</g>
<defs>
<clipPath id="clip0_83_278">
<rect width="26" height="25" fill="white" transform="translate(10 10)"/>
</clipPath>
</defs>
</svg>
