<svg width="13" height="14" viewBox="0 0 13 14" fill="none" xmlns="http://www.w3.org/2000/svg">
<path d="M12.4905 6.94037L11.0055 6.45489C10.0557 6.137 9.49921 5.35742 9.23804 4.37781L8.58456 1.14921C8.5675 1.08542 8.52592 1 8.398 1C8.29033 1 8.2285 1.08542 8.21144 1.14921L7.55796 4.3789C7.29572 5.35851 6.74032 6.13808 5.79048 6.45597L4.30549 6.94145C4.09548 7.01065 4.09228 7.31124 4.30123 7.38368L5.79687 7.90592C6.74351 8.22489 7.29572 9.00339 7.55796 9.97867L8.21251 13.1716C8.22957 13.2354 8.26475 13.35 8.39907 13.35C8.54085 13.35 8.56857 13.2354 8.58562 13.1716L9.24017 9.97867C9.50241 9.00231 10.0546 8.22381 11.0013 7.90592L12.4969 7.38368C12.7037 7.31016 12.7005 7.00957 12.4905 6.94037Z" fill="#FDD835"/>
<path d="M12.6313 7.07545C12.6078 7.01599 12.562 6.96409 12.4906 6.9403L11.0056 6.45482C10.0557 6.13693 9.49927 5.35735 9.2381 4.37774L8.58462 1.14914C8.57502 1.11238 8.54091 1.04534 8.50146 1.02588L8.71254 4.26638C8.86925 5.74552 9.00357 6.44184 10.1677 6.64512C11.1676 6.82028 12.3243 7.02139 12.6313 7.07545Z" fill="#FFEE58"/>
<path d="M12.6343 7.24414L10.0587 7.84315C9.15155 8.0767 8.65158 8.60976 8.65158 10.0046L8.39893 13.3499C8.48527 13.3413 8.55563 13.2937 8.58548 13.1715L9.24003 9.97861C9.50227 9.00225 10.0545 8.22375 11.0011 7.90586L12.4968 7.38362C12.5671 7.35767 12.6119 7.30469 12.6343 7.24414Z" fill="#F4B400"/>
<path d="M3.98565 9.74935C3.09764 9.45201 3.01662 9.11682 2.86737 8.55133L2.49533 7.22788C2.47294 7.14246 2.25334 7.14246 2.22989 7.22788L1.97724 8.45077C1.82692 9.0141 1.50711 9.46174 0.961304 9.64447L0.0914196 10.0272C-0.0290424 10.0672 -0.0311744 10.2402 0.0892875 10.2813L0.965568 10.596C1.50925 10.7787 1.82692 11.2263 1.9783 11.7875L2.23095 12.9574C2.2544 13.0428 2.47294 13.0428 2.49533 12.9574L2.79169 11.7929C2.942 11.2285 3.17226 10.7798 3.91102 10.596L4.734 10.2813C4.85446 10.2392 4.8534 10.0662 4.73187 10.0261L3.98565 9.74935Z" fill="#FDD835"/>
<path d="M2.5658 8.53177C2.65641 9.38163 2.70225 9.61734 3.38131 9.79358L4.79594 10.0736C4.78102 10.0531 4.7597 10.0358 4.73091 10.0271L3.98469 9.74925C3.20542 9.47894 2.99008 9.1351 2.84403 8.44743C2.69799 7.75975 2.54234 7.31104 2.54234 7.31104C2.48798 7.16291 2.41016 7.17048 2.41016 7.17048L2.5658 8.53177Z" fill="#FFEE58"/>
<path d="M2.59125 11.4987C2.59125 10.6975 3.02299 10.3007 3.70952 10.3007L4.77768 10.2563C4.77768 10.2563 4.71585 10.3396 4.60818 10.3656L3.911 10.5959C3.31935 10.837 3.04964 10.9581 2.86628 11.7787C2.86628 11.7787 2.62962 12.7335 2.58485 12.834C2.52302 12.9746 2.44946 13.0038 2.44946 13.0038L2.59125 11.4987Z" fill="#F4B400"/>
<path d="M5.89708 3.40581C5.95678 3.38526 5.95465 3.29877 5.89389 3.28147L5.07091 3.05657C4.89821 3.00899 4.76389 2.87384 4.71485 2.69975L4.39078 1.34279C4.37479 1.27683 4.28204 1.27683 4.26605 1.34387L3.96117 2.69543C3.91426 2.87492 3.77567 3.01332 3.59871 3.05981L2.78106 3.27498C2.7203 3.2912 2.71604 3.3777 2.77573 3.39932L3.63816 3.70207C3.79273 3.75613 3.91213 3.88372 3.95903 4.04266L4.26712 5.29583C4.28311 5.3607 4.37479 5.36178 4.39078 5.29583L4.70952 4.03834C4.75749 3.87939 4.87796 3.75289 5.0336 3.69991L5.89708 3.40581Z" fill="#F4B400" stroke="#F4B400" stroke-miterlimit="10"/>
</svg>
