<svg width="10" height="12" viewBox="0 0 10 12" fill="none" xmlns="http://www.w3.org/2000/svg">
<path d="M5.88139 6.0015L9.80943 1.68052C9.86905 1.61718 9.91661 1.54141 9.94932 1.45764C9.98204 1.37387 9.99926 1.28377 9.99998 1.1926C10.0007 1.10143 9.9849 1.01101 9.95352 0.926629C9.92213 0.842244 9.87578 0.76558 9.81717 0.70111C9.75856 0.63664 9.68887 0.585656 9.61215 0.551131C9.53544 0.516607 9.45324 0.499234 9.37036 0.500026C9.28748 0.500818 9.20557 0.51976 9.12941 0.555746C9.05325 0.591731 8.98437 0.644041 8.92679 0.709621L4.9986 5.03043L1.07056 0.709621C0.953064 0.583221 0.794997 0.512886 0.630657 0.513882C0.466317 0.514877 0.308964 0.587122 0.192746 0.714939C0.0765278 0.842755 0.0108224 1.01583 0.00988831 1.1966C0.00895421 1.37737 0.072867 1.55126 0.187757 1.68052L4.11595 6.0015L0.187757 10.3225C0.128733 10.386 0.0817466 10.4617 0.0495195 10.5453C0.0172923 10.629 0.000464139 10.7188 9.46651e-06 10.8096C-0.000445206 10.9004 0.0154827 10.9904 0.0468707 11.0744C0.0782587 11.1584 0.124483 11.2347 0.182868 11.2989C0.241252 11.3631 0.310637 11.414 0.387005 11.4485C0.463372 11.483 0.545205 11.5005 0.627765 11.5C0.710325 11.4995 0.791971 11.4809 0.867977 11.4455C0.943983 11.41 1.01284 11.3583 1.07056 11.2934L4.9986 6.97257L8.92679 11.2934C9.04867 11.4274 9.20847 11.4946 9.36811 11.4946C9.52776 11.4946 9.68771 11.4274 9.80943 11.2934C9.92646 11.1646 9.9922 10.99 9.9922 10.8079C9.9922 10.6259 9.92646 10.4512 9.80943 10.3225L5.88139 6.0015Z" fill="#AAAAAA"/>
</svg>
