<svg width="11" height="11" viewBox="0 0 11 11" fill="none" xmlns="http://www.w3.org/2000/svg">
<path d="M8.12552 0C6.14631 0 5.41912 2.16029 5.41912 2.16029C5.41912 2.16029 4.70187 0 2.70911 0C1.21138 0 -0.495928 1.2678 0.134602 4.14979C0.765131 7.03178 5.42454 10.622 5.42454 10.622C5.42454 10.622 10.0668 7.03178 10.6982 4.14979C11.3287 1.2678 9.7443 0 8.12552 0Z" fill="#F44336"/>
<path d="M2.40374 0.21516C3.95748 0.21516 4.72893 1.99916 4.97825 2.72182C5.01348 2.82506 5.14807 2.82796 5.18872 2.72761L5.41637 2.15932C5.09568 1.06519 4.21402 0 2.70907 0C2.08576 0 1.42723 0.219984 0.915039 0.684074C1.36761 0.366641 1.89787 0.21516 2.40374 0.21516Z" fill="#CC3333"/>
<path d="M8.12542 0C7.64755 0 7.21214 0.110957 6.87249 0.334801C7.11097 0.236387 7.40636 0.21516 7.69904 0.21516C9.16335 0.21516 10.4741 1.40095 9.88241 4.14207C9.37473 6.49533 6.40817 9.3503 5.50213 10.4396C5.44431 10.5091 5.42444 10.621 5.42444 10.621C5.42444 10.621 10.0667 7.03082 10.6981 4.14883C11.3286 1.2678 9.7469 0 8.12542 0Z" fill="#CC3333"/>
<path d="M1.17431 1.52931C1.51306 1.07776 2.11829 0.704366 2.63139 1.13469C2.90871 1.36721 2.78767 1.84385 2.53925 2.04453C2.17791 2.33785 1.86355 2.51441 1.64314 2.97368C1.51125 3.24962 1.43176 3.55162 1.39111 3.85941C1.37485 3.98098 1.2258 4.01089 1.16979 3.90379C0.788582 3.18208 0.680182 2.1883 1.17431 1.52931Z" fill="#FF8A80"/>
<path d="M6.60521 2.47862C6.44622 2.47862 6.3342 2.3146 6.39202 2.15637C6.49951 1.86498 6.63863 1.58325 6.80575 1.33239C7.05326 0.961889 7.5239 0.745764 7.822 0.970573C8.12733 1.20021 8.08758 1.65947 7.87349 1.88139C7.41369 2.35705 6.83375 2.47862 6.60521 2.47862Z" fill="#FF8A80"/>
</svg>
