<svg width="13" height="13" viewBox="0 0 13 13" fill="none" xmlns="http://www.w3.org/2000/svg">
<g clip-path="url(#clip0_82_141)">
<path d="M9.28876 0.865479C7.12344 0.865479 6.32787 3.02576 6.32787 3.02576C6.32787 3.02576 5.54318 0.865479 3.36303 0.865479C1.72446 0.865479 -0.143392 2.13328 0.546429 5.01527C1.23625 7.89726 6.3338 11.4874 6.3338 11.4874C6.3338 11.4874 11.4126 7.89726 12.1034 5.01527C12.7932 2.13328 11.0598 0.865479 9.28876 0.865479Z" fill="#F44336"/>
<path d="M3.02908 1.08064C4.72892 1.08064 5.57291 2.86463 5.84568 3.5873C5.88422 3.69054 6.03148 3.69344 6.07595 3.59309L6.325 3.0248C5.97416 1.93067 5.00959 0.865479 3.36312 0.865479C2.6812 0.865479 1.96075 1.08546 1.40039 1.54955C1.89552 1.23212 2.47564 1.08064 3.02908 1.08064Z" fill="#CC3333"/>
<path d="M9.28895 0.865479C8.76614 0.865479 8.28979 0.976435 7.9182 1.20028C8.17911 1.10187 8.50227 1.08064 8.82248 1.08064C10.4245 1.08064 11.8585 2.26643 11.2112 5.00755C10.6557 7.36081 7.41022 10.2158 6.41898 11.3051C6.35573 11.3746 6.33398 11.4865 6.33398 11.4865C6.33398 11.4865 11.4128 7.8963 12.1036 5.01431C12.7934 2.13328 11.0629 0.865479 9.28895 0.865479Z" fill="#CC3333"/>
<path d="M1.68389 2.39479C2.05449 1.94324 2.71664 1.56984 3.27798 2.00016C3.58139 2.23269 3.44896 2.70932 3.17718 2.91001C2.78187 3.20332 2.43795 3.37989 2.19681 3.83916C2.05252 4.1151 1.96555 4.4171 1.92107 4.72488C1.90329 4.84645 1.74022 4.87636 1.67895 4.76927C1.26189 4.04756 1.1433 3.05377 1.68389 2.39479Z" fill="#FF8A80"/>
<path d="M7.6256 3.3441C7.45167 3.3441 7.32912 3.18008 7.39237 3.02184C7.50998 2.73046 7.66217 2.44873 7.845 2.19787C8.11579 1.82737 8.63069 1.61124 8.95682 1.83605C9.29086 2.06568 9.24737 2.52495 9.01315 2.74686C8.51012 3.22253 7.87564 3.3441 7.6256 3.3441Z" fill="#FF8A80"/>
</g>
<defs>
<clipPath id="clip0_82_141">
<rect width="12.65" height="12.35" fill="white"/>
</clipPath>
</defs>
</svg>
