<svg width="23" height="22" viewBox="0 0 23 22" fill="none" xmlns="http://www.w3.org/2000/svg">
<g clip-path="url(#clip0_82_75)">
<path d="M9.91093 10.3746L9.9109 10.3746L9.91721 10.3783L15.0192 13.3393C15.0911 13.4014 15.1223 13.483 15.1223 13.5208C15.1223 13.57 15.1124 13.606 15.1007 13.6295C15.0907 13.6494 15.0759 13.6684 15.0465 13.6866L9.95944 16.6389C9.94407 16.6443 9.92982 16.6494 9.91732 16.6539C9.91264 16.6555 9.9082 16.6571 9.90405 16.6586C9.87452 16.6692 9.85641 16.6754 9.84117 16.6799C9.82644 16.6844 9.81782 16.6862 9.81155 16.687C9.80526 16.6856 9.79623 16.6834 9.78477 16.6799C9.76205 16.6731 9.73953 16.6646 9.72156 16.6567C9.63431 16.5978 9.61401 16.5271 9.61401 16.5V10.5417C9.61401 10.487 9.62757 10.4529 9.63805 10.4357C9.6475 10.4203 9.65664 10.414 9.66638 10.4101L9.70357 10.3952L9.73793 10.3746C9.78789 10.3446 9.8146 10.3427 9.82443 10.3427C9.83426 10.3427 9.86097 10.3446 9.91093 10.3746ZM21.3515 6H21.9576L21.8424 5.40499C21.5468 3.87751 20.9899 3.10213 20.3759 2.48811C19.9838 2.09605 19.5038 1.67838 18.7229 1.36857C17.9524 1.06292 16.9222 0.875 15.439 0.875H14.7515H13.8935L14.3165 1.62151L16.654 5.74651L16.7977 6H17.089H21.3515ZM13.5365 1.12849L13.3929 0.875H13.1015H8.28901H7.60151H6.74348L7.1665 1.62151L9.504 5.74651L9.64765 6H9.93901H15.439H16.297L15.874 5.25349L13.5365 1.12849ZM6.56928 1.31081L6.38805 0.992726L6.03008 1.06943C4.63383 1.36863 3.90955 1.93069 3.35213 2.48811C2.73811 3.10213 2.18126 3.87751 1.88562 5.40499L1.77046 6H2.37651H8.38068H9.24103L8.81511 5.25247L6.56928 1.31081ZM2.23901 6.375H1.73901V6.875V14.575C1.73901 16.0365 1.92724 17.0656 2.23206 17.8404C2.54067 18.6247 2.95648 19.1162 3.35213 19.5119C3.74419 19.9039 4.22419 20.3216 5.00516 20.6314C5.77565 20.9371 6.80579 21.125 8.28901 21.125H15.439C16.9005 21.125 17.9296 20.9368 18.7044 20.6319C19.4888 20.3233 19.9803 19.9075 20.3759 19.5119C20.768 19.1198 21.1856 18.6398 21.4954 17.8588C21.8011 17.0884 21.989 16.0582 21.989 14.575V6.875V6.375H21.489H2.23901ZM15.3932 0.5C16.8909 0.5 17.9395 0.679144 18.738 0.973338C19.5256 1.26349 20.0972 1.6755 20.6314 2.18711C21.1675 2.74588 21.5906 3.3297 21.886 4.11723C22.1851 4.91485 22.364 5.95102 22.364 7.425V14.4833C22.364 15.981 22.1849 17.0297 21.8907 17.8282C21.5999 18.6175 21.1867 19.1898 20.6735 19.7251C20.1415 20.2563 19.5595 20.6797 18.765 20.9757C17.9613 21.2752 16.9132 21.4542 15.439 21.4542H8.33485C6.83714 21.4542 5.78852 21.275 4.98999 20.9808C4.20069 20.69 3.62833 20.2768 3.09311 19.7637C2.56182 19.2317 2.13846 18.6497 1.84245 17.8551C1.54302 17.0514 1.36401 16.0034 1.36401 14.5292V7.425C1.36401 5.95102 1.54296 4.91406 1.83698 4.12126C2.12711 3.33894 2.53931 2.76706 3.05112 2.23265C3.6099 1.69654 4.19371 1.27338 4.98124 0.97806C5.77887 0.678951 6.81504 0.5 8.28901 0.5H15.3932Z" fill="#262626" stroke="black"/>
</g>
<defs>
<clipPath id="clip0_82_75">
<rect width="22" height="22" fill="white" transform="translate(0.864014)"/>
</clipPath>
</defs>
</svg>
