<svg width="23" height="23" viewBox="0 0 23 23" fill="none" xmlns="http://www.w3.org/2000/svg">
<g clip-path="url(#clip0_82_200)">
<rect width="22.5" height="22.5" transform="translate(0.5)" fill="white"/>
<path d="M9.75838 10.6006L9.75835 10.6007L9.76465 10.6043L14.9835 13.6331C15.0596 13.6985 15.0938 13.7853 15.0938 13.8281C15.0938 13.8799 15.0833 13.9185 15.0704 13.9444C15.0593 13.9665 15.0427 13.9877 15.0106 14.0074L9.80692 17.0274C9.79094 17.033 9.7761 17.0383 9.76308 17.043C9.75823 17.0447 9.75362 17.0464 9.74931 17.0479C9.7191 17.0587 9.70034 17.0651 9.68445 17.0699C9.66738 17.075 9.6577 17.077 9.65032 17.0777C9.64347 17.0763 9.6333 17.0738 9.62024 17.0699C9.59618 17.0627 9.57232 17.0536 9.55335 17.0452C9.46072 16.9831 9.4375 16.9071 9.4375 16.875V10.7812C9.4375 10.7235 9.45184 10.6865 9.46375 10.667C9.47463 10.6492 9.48585 10.6411 9.49819 10.6361L9.53539 10.6212L9.56975 10.6006C9.62231 10.5691 9.65163 10.5664 9.66406 10.5664C9.67649 10.5664 9.70581 10.5691 9.75838 10.6006ZM21.4531 6.125H22.0592L21.944 5.52999C21.6421 3.97022 21.0738 3.17921 20.4473 2.5527C20.0469 2.1523 19.5573 1.72629 18.7605 1.41023C17.9743 1.09834 16.9223 0.90625 15.4062 0.90625H14.7031H13.8451L14.2681 1.65276L16.6587 5.87151L16.8024 6.125H17.0938H21.4531ZM13.4506 1.15974L13.307 0.90625H13.0156H8.09375H7.39062H6.53259L6.95561 1.65276L9.34624 5.87151L9.48989 6.125H9.78125H15.4062H16.2643L15.8413 5.37849L13.4506 1.15974ZM6.32506 1.34622L6.14382 1.02814L5.78586 1.10485C4.36044 1.4103 3.62157 1.98382 3.0527 2.5527C2.42618 3.17921 1.85788 3.97022 1.55599 5.52999L1.44082 6.125H2.04688H8.1875H9.04785L8.62193 5.37747L6.32506 1.34622ZM1.90625 6.53125H1.40625V7.03125V14.9062C1.40625 16.4 1.59865 17.451 1.90972 18.2417C2.22458 19.0419 2.64872 19.5433 3.0527 19.9473C3.45309 20.3477 3.94273 20.7737 4.73946 21.0898C5.5257 21.4017 6.57771 21.5937 8.09375 21.5937H15.4062C16.9 21.5937 17.951 21.4014 18.7417 21.0903C19.5419 20.7754 20.0433 20.3513 20.4473 19.9473C20.8477 19.5469 21.2737 19.0573 21.5898 18.2605C21.9017 17.4743 22.0938 16.4223 22.0938 14.9062V7.03125V6.53125H21.5938H1.90625ZM15.3594 0.5C16.892 0.5 17.9659 0.683311 18.7842 0.984797C19.5915 1.28224 20.1774 1.70466 20.7246 2.22878C21.2738 2.80109 21.7076 3.39949 22.0104 4.20681C22.3169 5.02423 22.5 6.0854 22.5 7.59375V14.8125C22.5 16.3451 22.3167 17.419 22.0152 18.2373C21.7171 19.0464 21.2935 19.633 20.7679 20.1813C20.2228 20.7256 19.6263 21.1597 18.8118 21.4631C17.9881 21.7699 16.9148 21.9531 15.4062 21.9531H8.14062C6.60802 21.9531 5.53414 21.7698 4.71582 21.4683C3.90673 21.1702 3.32005 20.7466 2.77181 20.2209C2.2275 19.6759 1.79346 19.0794 1.49003 18.2649C1.18317 17.4412 1 16.368 1 14.8594V7.59375C1 6.08539 1.18311 5.02344 1.48442 4.21097C1.78185 3.40899 2.20446 2.82279 2.72878 2.27535C3.3011 1.72622 3.89949 1.29239 4.70681 0.989649C5.52423 0.683118 6.5854 0.5 8.09375 0.5H15.3594Z" fill="#979797" stroke="#979797"/>
</g>
<defs>
<clipPath id="clip0_82_200">
<rect width="22.5" height="22.5" fill="white" transform="translate(0.5)"/>
</clipPath>
</defs>
</svg>
