<svg width="22" height="23" viewBox="0 0 22 23" fill="none" xmlns="http://www.w3.org/2000/svg">
<path fill-rule="evenodd" clip-rule="evenodd" d="M11.7 0.527395L21.7 10.0393C21.8919 10.2218 22 10.4716 22 10.7324V22.4551C22 22.7231 21.7761 22.9403 21.5 22.9403H14.5C14.2239 22.9403 14 22.7231 14 22.4551V17.1179C14 15.5674 12.7511 14.3 11.1763 14.2115L11 14.2065C9.40232 14.2065 8.09634 15.4185 8.00509 16.9468L8 17.1179V22.4551C7.99998 22.7231 7.77613 22.9403 7.5 22.9404L0.5 22.9406C0.25454 22.9407 0.0503841 22.769 0.00803813 22.5427L0 22.4554V22.4554V10.7324C0 10.4716 0.108129 10.2218 0.300019 10.0393L10.3 0.527395C10.6889 0.157535 11.3111 0.157535 11.7 0.527395Z" fill="#262626"/>
</svg>
