<svg width="10" height="10" viewBox="0 0 10 10" fill="none" xmlns="http://www.w3.org/2000/svg">
<path d="M7.20833 0.719424C8.39583 0.719424 9.375 1.96643 9.375 3.47722C9.375 5.10791 8.14583 6.11511 6.97917 7.31415C5.8125 8.51319 5.20833 9.16067 5 9.30456C4.77083 9.13669 4.02083 8.34532 3.02083 7.31415C1.83333 6.11511 0.625 5.10791 0.625 3.47722C0.625 1.96643 1.60417 0.719424 2.79167 0.719424C3.66667 0.719424 4.14583 1.19904 4.47917 1.7506C4.875 2.3741 4.9375 2.68585 5 2.68585C5.0625 2.68585 5.125 2.3741 5.52083 1.7506C5.85417 1.19904 6.33333 0.719424 7.20833 0.719424V0.719424ZM7.20833 0C6.27083 0 5.5625 0.431655 5 1.34293C4.4375 0.455635 3.72917 0.0239808 2.79167 0.0239808C1.25 3.39475e-08 0 1.55875 0 3.47722C0 5.22782 1.125 6.35492 2.20833 7.43405C2.33333 7.55396 2.47917 7.69784 2.60417 7.84173L3.08333 8.32134C4 9.25659 4.45833 9.73621 4.66667 9.8801C4.77083 9.95204 4.89583 10 5 10C5.125 10 5.22917 9.95204 5.33333 9.8801C5.54167 9.73621 5.91667 9.35252 6.95833 8.2494L7.375 7.81775C7.52083 7.67386 7.64583 7.52998 7.79167 7.41007C8.89583 6.35492 10 5.2518 10 3.47722C10 1.55875 8.75 0 7.20833 0V0Z" fill="#AAAAAA"/>
</svg>
