<svg width="16" height="16" viewBox="0 0 16 16" fill="none" xmlns="http://www.w3.org/2000/svg">
<path d="M11.0345 6.8966H4.96554C4.81922 6.8966 4.67888 6.83847 4.57541 6.73501C4.47195 6.63154 4.41382 6.4912 4.41382 6.34488V4.41384C4.41382 2.43646 6.02265 0.827637 8.00003 0.827637C9.9774 0.827637 11.5862 2.43646 11.5862 4.41384V6.34488C11.5862 6.4912 11.5281 6.63154 11.4246 6.73501C11.3212 6.83847 11.1808 6.8966 11.0345 6.8966ZM5.51727 5.79315H10.4828V4.41384C10.4828 3.04502 9.36885 1.93108 8.00003 1.93108C6.6312 1.93108 5.51727 3.04502 5.51727 4.41384V5.79315Z" fill="black"/>
<path d="M12.6898 15.1725H3.31045C2.39789 15.1725 1.65527 14.4299 1.65527 13.5174V7.44839C1.65527 6.53583 2.39789 5.79321 3.31045 5.79321H12.6898C13.6023 5.79321 14.3449 6.53583 14.3449 7.44839V13.5174C14.3449 14.4299 13.6023 15.1725 12.6898 15.1725ZM3.31045 6.89666C3.16412 6.89666 3.02379 6.95479 2.92032 7.05826C2.81685 7.16173 2.75872 7.30206 2.75872 7.44839V13.5174C2.75872 13.6637 2.81685 13.804 2.92032 13.9075C3.02379 14.0109 3.16412 14.0691 3.31045 14.0691H12.6898C12.8361 14.0691 12.9764 14.0109 13.0799 13.9075C13.1834 13.804 13.2415 13.6637 13.2415 13.5174V7.44839C13.2415 7.30206 13.1834 7.16173 13.0799 7.05826C12.9764 6.95479 12.8361 6.89666 12.6898 6.89666H3.31045Z" fill="black"/>
</svg>
