<svg width="13" height="13" viewBox="0 0 13 13" fill="none" xmlns="http://www.w3.org/2000/svg">
<g clip-path="url(#clip0_82_172)">
<path d="M6.2855 11.4622C3.52819 11.4622 0.553467 9.77377 0.553467 6.06877C0.553467 2.36377 3.52819 0.675293 6.2855 0.675293C7.81733 0.675293 9.23058 1.16736 10.2782 2.06467C11.4147 3.04881 12.0175 4.43818 12.0175 6.06877C12.0175 7.69936 11.4147 9.07908 10.2782 10.0632C9.23058 10.9605 7.80745 11.4622 6.2855 11.4622Z" fill="url(#paint0_radial_82_172)"/>
<path d="M11.0182 2.86279C11.545 3.69256 11.8197 4.68056 11.8197 5.77952C11.8197 7.4101 11.2169 8.78983 10.0804 9.77397C9.03279 10.6713 7.60966 11.173 6.08771 11.173C4.30287 11.173 2.42712 10.4638 1.32617 8.95964C2.38956 10.6636 4.38886 11.4624 6.28537 11.4624C7.80732 11.4624 9.23045 10.9607 10.278 10.0634C11.4145 9.07928 12.0174 7.69956 12.0174 6.06897C12.0174 4.83976 11.6745 3.74755 11.0182 2.86279Z" fill="#EB8F00"/>
<path opacity="0.8" d="M2.69312 8.42603C3.64829 8.42603 4.42261 7.67007 4.42261 6.73755C4.42261 5.80503 3.64829 5.04907 2.69312 5.04907C1.73794 5.04907 0.963623 5.80503 0.963623 6.73755C0.963623 7.67007 1.73794 8.42603 2.69312 8.42603Z" fill="url(#paint1_radial_82_172)"/>
<path opacity="0.8" d="M9.95703 8.42603C10.9122 8.42603 11.6865 7.67007 11.6865 6.73755C11.6865 5.80503 10.9122 5.04907 9.95703 5.04907C9.00186 5.04907 8.22754 5.80503 8.22754 6.73755C8.22754 7.67007 9.00186 8.42603 9.95703 8.42603Z" fill="url(#paint2_radial_82_172)"/>
<path d="M4.6628 3.43576C4.89109 3.43865 4.95731 3.13376 4.71518 3.08359C4.53432 3.04789 4.33568 3.04306 4.13901 3.06719C3.58854 3.12604 3.11416 3.40295 2.80483 3.7638C2.65066 3.94905 2.90267 4.14395 3.07068 4.00598C3.50058 3.66539 4.06786 3.44058 4.6628 3.43576Z" fill="#422B0D"/>
<path d="M7.91032 3.5014C7.68401 3.52649 7.58715 3.22931 7.82236 3.15599C7.99927 3.10388 8.19593 3.07976 8.39359 3.08459C8.94703 3.09038 9.4471 3.32001 9.79201 3.64999C9.96397 3.8198 9.73271 4.03785 9.55186 3.91628C9.08934 3.61815 8.5023 3.4493 7.91032 3.5014Z" fill="#422B0D"/>
<path d="M6.32506 9.28174C7.3924 9.28174 8.0842 8.51951 8.27197 8.16252C8.34115 8.02744 8.34115 7.91166 8.28185 7.86342C8.23244 7.82482 8.16326 7.82482 8.07431 7.86342C8.04467 7.87307 8.01502 7.89236 7.98537 7.91166C7.51099 8.23971 6.92791 8.44232 6.32506 8.44232C5.72221 8.44232 5.13912 8.23971 4.66474 7.92131C4.6351 7.90201 4.60545 7.88271 4.5758 7.87307C4.48685 7.83447 4.41767 7.83447 4.36826 7.87307C4.30896 7.93096 4.30896 8.03709 4.37814 8.17217C4.56592 8.51951 5.25771 9.28174 6.32506 9.28174Z" fill="#422B0D"/>
<path d="M5.09944 5.92706L5.07967 5.90776C5.06979 5.89812 5.04014 5.86917 5.03026 5.85952C5.0105 5.84022 4.99073 5.83058 4.96108 5.80163C4.93143 5.78233 4.90178 5.75339 4.86225 5.73409C4.82272 5.7148 4.78319 5.68585 4.74366 5.66655C4.70413 5.64726 4.65471 5.62796 4.6053 5.60866C4.55589 5.58937 4.50647 5.57972 4.45706 5.57007C4.40764 5.56042 4.35823 5.56042 4.29893 5.56042H4.27917H4.24952C4.21987 5.56042 4.21987 5.56042 4.20999 5.56042C4.19022 5.56042 4.16057 5.57007 4.14081 5.57007C4.09139 5.57972 4.04198 5.58937 3.99257 5.60866C3.94315 5.62796 3.89374 5.63761 3.85421 5.66655C3.81467 5.68585 3.77514 5.70515 3.73561 5.73409C3.66643 5.78233 3.60714 5.83058 3.5676 5.85952C3.52807 5.89812 3.50831 5.91741 3.50831 5.91741L3.48854 5.93671C3.36995 6.05249 3.17229 6.05249 3.03393 5.95601C2.9351 5.87882 2.90546 5.74374 2.95487 5.64726L2.96475 5.61831C2.97464 5.59901 2.98452 5.57007 3.00428 5.54112C3.04382 5.47358 3.11299 5.3771 3.22171 5.27097C3.27112 5.22272 3.3403 5.16483 3.40948 5.11659C3.47866 5.06835 3.5676 5.02011 3.65655 4.98151C3.7455 4.94292 3.85421 4.90433 3.95303 4.88503C4.00245 4.87538 4.06175 4.86573 4.12104 4.85608C4.15069 4.85608 4.19022 4.84644 4.2001 4.84644H4.27917C4.38788 4.84644 4.49659 4.85608 4.6053 4.87538C4.71401 4.89468 4.81284 4.93327 4.90178 4.97187C4.99073 5.01046 5.07967 5.0587 5.14885 5.10694C5.22792 5.15519 5.28721 5.20343 5.33663 5.26132C5.38604 5.30956 5.43546 5.3578 5.4651 5.40604C5.48487 5.42534 5.49475 5.45429 5.51452 5.47358C5.5244 5.49288 5.54417 5.51218 5.55405 5.53147C5.5837 5.57007 5.5837 5.58937 5.59358 5.60866C5.60346 5.62796 5.60346 5.62796 5.60346 5.62796C5.67264 5.77269 5.59358 5.93671 5.42557 5.9946C5.33663 6.04284 5.18839 6.0139 5.09944 5.92706Z" fill="#422B0D"/>
<path d="M9.14257 5.89227C9.14257 5.89227 9.13565 5.88551 9.12281 5.87297C9.11194 5.86236 9.08723 5.83534 9.0724 5.82473C9.05363 5.80929 9.0309 5.79096 9.00421 5.76973C8.97555 5.7485 8.94294 5.72535 8.90736 5.70123C8.87079 5.67904 8.83126 5.65588 8.78877 5.63562C8.74726 5.61343 8.69982 5.59799 8.65238 5.58062C8.60495 5.56422 8.55455 5.55554 8.50414 5.54492C8.45374 5.5372 8.40136 5.53334 8.34898 5.53334C8.37863 5.53334 8.35689 5.53334 8.36282 5.53334H8.36183H8.35985H8.3559H8.34799H8.33218L8.30154 5.53431C8.27585 5.53431 8.2719 5.53624 8.26201 5.5372C8.2462 5.5372 8.21754 5.54203 8.19283 5.54589C8.14243 5.5565 8.09203 5.56518 8.04459 5.58159C7.99814 5.59895 7.9507 5.61439 7.9092 5.63658C7.8667 5.65781 7.82717 5.68 7.7906 5.70219C7.71945 5.7485 7.66114 5.79482 7.6226 5.82955C7.58306 5.86428 7.56033 5.88551 7.56033 5.88551L7.53563 5.90963C7.41604 6.02252 7.21444 6.02927 7.08398 5.92603C6.9812 5.84402 6.95551 5.71763 7.0069 5.61246C7.0069 5.61246 7.01184 5.60281 7.02172 5.58352C7.0316 5.56518 7.04346 5.53624 7.0652 5.50247C7.10572 5.43396 7.17293 5.33748 7.27966 5.23617C7.33303 5.186 7.39529 5.13293 7.46941 5.08469C7.54156 5.03452 7.62556 4.98917 7.71846 4.94961C7.81136 4.91102 7.91216 4.87725 8.0189 4.85602C8.07325 4.84638 8.12365 4.83673 8.18987 4.83094C8.22051 4.82804 8.25707 4.82515 8.27288 4.82418L8.34898 4.82129C8.46066 4.82322 8.57135 4.8348 8.67907 4.85506C8.7858 4.87629 8.88661 4.91005 8.97951 4.94865C9.07142 4.98821 9.15641 5.03355 9.22855 5.08373C9.30267 5.13197 9.36395 5.18407 9.41731 5.23521C9.47068 5.28538 9.51318 5.33555 9.54876 5.3809C9.56556 5.40405 9.58137 5.42528 9.59619 5.44554C9.61003 5.46773 9.62386 5.488 9.63474 5.50633C9.66142 5.54685 9.6634 5.56229 9.67328 5.58062C9.6802 5.59606 9.68415 5.60474 9.68415 5.60474C9.75036 5.7485 9.67031 5.91156 9.50527 5.96945C9.37581 6.0148 9.23053 5.98007 9.14257 5.89227Z" fill="#422B0D"/>
</g>
<defs>
<radialGradient id="paint0_radial_82_172" cx="0" cy="0" r="1" gradientUnits="userSpaceOnUse" gradientTransform="translate(6.2855 6.06876) scale(5.62922 5.49572)">
<stop offset="0.5" stop-color="#FDE030"/>
<stop offset="0.9188" stop-color="#F7C02B"/>
<stop offset="1" stop-color="#F4A223"/>
</radialGradient>
<radialGradient id="paint1_radial_82_172" cx="0" cy="0" r="1" gradientUnits="userSpaceOnUse" gradientTransform="translate(2.69317 6.73742) scale(1.88149 1.74494)">
<stop stop-color="#ED7770"/>
<stop offset="0.9" stop-color="#ED7770" stop-opacity="0"/>
</radialGradient>
<radialGradient id="paint2_radial_82_172" cx="0" cy="0" r="1" gradientUnits="userSpaceOnUse" gradientTransform="translate(9.95727 6.73742) scale(1.88149 1.74494)">
<stop stop-color="#ED7770"/>
<stop offset="0.9" stop-color="#ED7770" stop-opacity="0"/>
</radialGradient>
<clipPath id="clip0_82_172">
<rect width="12.65" height="12.35" fill="white"/>
</clipPath>
</defs>
</svg>
