<svg width="25" height="24" viewBox="0 0 25 24" fill="none" xmlns="http://www.w3.org/2000/svg">
<path fill-rule="evenodd" clip-rule="evenodd" d="M20.5 10C20.5 4.61522 16.1348 0.25 10.75 0.25C5.36522 0.25 1 4.61522 1 10C1 15.3848 5.36522 19.75 10.75 19.75C13.1726 19.75 15.3888 18.8664 17.094 17.404L23.0836 23.3943L23.1677 23.4669C23.4614 23.6848 23.878 23.6606 24.1443 23.3943C24.4372 23.1014 24.4372 22.6265 24.1443 22.3336L18.154 16.344C19.6164 14.6388 20.5 12.4226 20.5 10ZM2.5 10C2.5 5.44365 6.19365 1.75 10.75 1.75C15.3063 1.75 19 5.44365 19 10C19 14.5563 15.3063 18.25 10.75 18.25C6.19365 18.25 2.5 14.5563 2.5 10Z" fill="#262626"/>
<path d="M17.094 17.404L17.2001 17.2979L17.1019 17.1997L16.9964 17.2901L17.094 17.404ZM23.0836 23.3943L22.9773 23.5006L22.9856 23.5078L23.0836 23.3943ZM23.1677 23.4669L23.0695 23.5808L23.0784 23.5874L23.1677 23.4669ZM24.1443 22.3336L24.2504 22.2276L24.2504 22.2276L24.1443 22.3336ZM18.154 16.344L18.0401 16.2464L17.9497 16.3519L18.0479 16.4501L18.154 16.344ZM10.75 0.4C16.0519 0.4 20.35 4.69807 20.35 10H20.65C20.65 4.53238 16.2176 0.1 10.75 0.1V0.4ZM1.15 10C1.15 4.69807 5.44807 0.4 10.75 0.4V0.1C5.28238 0.1 0.85 4.53238 0.85 10H1.15ZM10.75 19.6C5.44807 19.6 1.15 15.3019 1.15 10H0.85C0.85 15.4676 5.28238 19.9 10.75 19.9V19.6ZM16.9964 17.2901C15.3174 18.7301 13.1355 19.6 10.75 19.6V19.9C13.2098 19.9 15.4603 19.0027 17.1917 17.5178L16.9964 17.2901ZM23.1897 23.2882L17.2001 17.2979L16.988 17.51L22.9776 23.5004L23.1897 23.2882ZM23.2658 23.3534L23.1817 23.2807L22.9856 23.5078L23.0697 23.5805L23.2658 23.3534ZM24.0382 23.2882C23.8253 23.5011 23.4919 23.5206 23.2571 23.3464L23.0784 23.5874C23.4308 23.8489 23.9307 23.82 24.2504 23.5004L24.0382 23.2882ZM24.0382 22.4397C24.2725 22.674 24.2725 23.0539 24.0382 23.2882L24.2504 23.5004C24.6018 23.1489 24.6018 22.579 24.2504 22.2276L24.0382 22.4397ZM18.0479 16.4501L24.0382 22.4397L24.2504 22.2276L18.26 16.238L18.0479 16.4501ZM20.35 10C20.35 12.3855 19.4801 14.5674 18.0401 16.2464L18.2678 16.4417C19.7527 14.7103 20.65 12.4598 20.65 10H20.35ZM10.75 1.6C6.11081 1.6 2.35 5.36081 2.35 10H2.65C2.65 5.52649 6.27649 1.9 10.75 1.9V1.6ZM19.15 10C19.15 5.36081 15.3892 1.6 10.75 1.6V1.9C15.2235 1.9 18.85 5.52649 18.85 10H19.15ZM10.75 18.4C15.3892 18.4 19.15 14.6392 19.15 10H18.85C18.85 14.4735 15.2235 18.1 10.75 18.1V18.4ZM2.35 10C2.35 14.6392 6.11081 18.4 10.75 18.4V18.1C6.27649 18.1 2.65 14.4735 2.65 10H2.35Z" fill="black"/>
</svg>
