<svg width="24" height="24" viewBox="0 0 24 24" fill="none" xmlns="http://www.w3.org/2000/svg">
<path fill-rule="evenodd" clip-rule="evenodd" d="M19.5 10C19.5 4.61522 15.1348 0.25 9.75 0.25C4.36522 0.25 0 4.61522 0 10C0 15.3848 4.36522 19.75 9.75 19.75C12.1726 19.75 14.3888 18.8664 16.094 17.404L22.0836 23.3943L22.1677 23.4669C22.4614 23.6848 22.878 23.6606 23.1443 23.3943C23.4372 23.1014 23.4372 22.6265 23.1443 22.3336L17.154 16.344C18.6164 14.6388 19.5 12.4226 19.5 10ZM1.5 10C1.5 5.44365 5.19365 1.75 9.75 1.75C14.3063 1.75 18 5.44365 18 10C18 14.5563 14.3063 18.25 9.75 18.25C5.19365 18.25 1.5 14.5563 1.5 10Z" fill="#262626"/>
</svg>
